<svg width="38" height="39" viewBox="0 0 38 39" fill="none" xmlns="http://www.w3.org/2000/svg">
<path d="M28.3084 3.27402H35.0352V9.50866" fill="url(#paint0_linear)"/>
<path d="M28.3084 3.27402H35.0352V9.50866" stroke="url(#paint1_linear)" stroke-width="4.16199" stroke-miterlimit="10"/>
<path d="M2.30335 9.75487V3.02802H8.538" fill="url(#paint2_linear)"/>
<path d="M2.30335 9.75487V3.02802H8.538" stroke="url(#paint3_linear)" stroke-width="4.16199" stroke-miterlimit="10"/>
<path d="M9.03025 35.9233H2.3034V29.6887" fill="url(#paint4_linear)"/>
<path d="M9.03025 35.9233H2.3034V29.6887" stroke="url(#paint5_linear)" stroke-width="4.16199" stroke-miterlimit="10"/>
<path d="M35.0352 29.4433V36.1702H28.8006" fill="url(#paint6_linear)"/>
<path d="M35.0352 29.4433V36.1702H28.8006" stroke="url(#paint7_linear)" stroke-width="4.16199" stroke-miterlimit="10"/>
<path d="M18.7816 16.4928L11.7154 13.7217L18.4713 10.4127L25.3971 13.5985L18.7816 16.4928Z" fill="url(#paint8_linear)" stroke="url(#paint9_linear)" stroke-width="1.0405"/>
<path d="M9.63838 24.4257L9.78386 15.6969L17.4519 18.8798V27.7537L9.63838 24.4257Z" fill="url(#paint10_linear)" stroke="url(#paint11_linear)" stroke-width="1.0405"/>
<path d="M20.1331 27.8981V18.8798L27.7883 15.7022V24.4316L20.1331 27.8981Z" fill="url(#paint12_linear)" stroke="url(#paint13_linear)" stroke-width="1.0405"/>
<defs>
<linearGradient id="paint0_linear" x1="33.2698" y1="1.58897" x2="29.3212" y2="1.89236" gradientUnits="userSpaceOnUse">
<stop stop-color="#22D594"/>
<stop offset="1" stop-color="#22FDE3"/>
</linearGradient>
<linearGradient id="paint1_linear" x1="33.2698" y1="1.58897" x2="29.3212" y2="1.89236" gradientUnits="userSpaceOnUse">
<stop stop-color="#22D594"/>
<stop offset="1" stop-color="#22FDE3"/>
</linearGradient>
<linearGradient id="paint2_linear" x1="6.90176" y1="1.20994" x2="3.23643" y2="1.45185" gradientUnits="userSpaceOnUse">
<stop stop-color="#22D594"/>
<stop offset="1" stop-color="#22FDE3"/>
</linearGradient>
<linearGradient id="paint3_linear" x1="6.90176" y1="1.20994" x2="3.23643" y2="1.45185" gradientUnits="userSpaceOnUse">
<stop stop-color="#22D594"/>
<stop offset="1" stop-color="#22FDE3"/>
</linearGradient>
<linearGradient id="paint4_linear" x1="7.26483" y1="28.0036" x2="3.31622" y2="28.307" gradientUnits="userSpaceOnUse">
<stop stop-color="#22D594"/>
<stop offset="1" stop-color="#22FDE3"/>
</linearGradient>
<linearGradient id="paint5_linear" x1="7.26483" y1="28.0036" x2="3.31622" y2="28.307" gradientUnits="userSpaceOnUse">
<stop stop-color="#22D594"/>
<stop offset="1" stop-color="#22FDE3"/>
</linearGradient>
<linearGradient id="paint6_linear" x1="33.399" y1="27.6253" x2="29.7337" y2="27.8672" gradientUnits="userSpaceOnUse">
<stop stop-color="#22D594"/>
<stop offset="1" stop-color="#22FDE3"/>
</linearGradient>
<linearGradient id="paint7_linear" x1="33.399" y1="27.6253" x2="29.7337" y2="27.8672" gradientUnits="userSpaceOnUse">
<stop stop-color="#22D594"/>
<stop offset="1" stop-color="#22FDE3"/>
</linearGradient>
<linearGradient id="paint8_linear" x1="22.405" y1="7.88571" x2="13.0543" y2="9.38391" gradientUnits="userSpaceOnUse">
<stop stop-color="#22D594"/>
<stop offset="1" stop-color="#22FDE3"/>
</linearGradient>
<linearGradient id="paint9_linear" x1="22.405" y1="7.88571" x2="13.0543" y2="9.38391" gradientUnits="userSpaceOnUse">
<stop stop-color="#22D594"/>
<stop offset="1" stop-color="#22FDE3"/>
</linearGradient>
<linearGradient id="paint10_linear" x1="15.6469" y1="11.2425" x2="10.4268" y2="11.4843" gradientUnits="userSpaceOnUse">
<stop stop-color="#22D594"/>
<stop offset="1" stop-color="#22FDE3"/>
</linearGradient>
<linearGradient id="paint11_linear" x1="15.6469" y1="11.2425" x2="10.4268" y2="11.4843" gradientUnits="userSpaceOnUse">
<stop stop-color="#22D594"/>
<stop offset="1" stop-color="#22FDE3"/>
</linearGradient>
<linearGradient id="paint12_linear" x1="26.0265" y1="11.1981" x2="20.9024" y2="11.4283" gradientUnits="userSpaceOnUse">
<stop stop-color="#22D594"/>
<stop offset="1" stop-color="#22FDE3"/>
</linearGradient>
<linearGradient id="paint13_linear" x1="26.0265" y1="11.1981" x2="20.9024" y2="11.4283" gradientUnits="userSpaceOnUse">
<stop stop-color="#22D594"/>
<stop offset="1" stop-color="#22FDE3"/>
</linearGradient>
</defs>
</svg>
