<svg width="174" height="35" viewBox="0 0 174 35" fill="none" xmlns="http://www.w3.org/2000/svg">
<path d="M13.1222 7.65218L7.03486 16.0625V18.6987L13.2823 27.8201H18.4546L11.1333 17.3591L18.2169 7.65218H13.1222ZM0.666809 27.8201H4.84528V0.203766H0.666809V27.8201Z" fill="white"/>
<path d="M19.4903 22.0038C19.4903 18.1548 22.1565 15.6441 26.9322 15.6441H30.394V18.8239H27.0505C24.9027 18.8239 23.7882 19.9545 23.7882 21.7529C23.7882 23.6362 25.2205 24.6818 27.2894 24.6818C29.2795 24.6818 31.2696 23.7186 32.9814 21.668V14.8482C32.9814 12.7975 31.9851 11.1246 28.9617 11.1246C26.6133 11.1246 25.3805 12.0865 25.0616 13.5098H20.5642C20.9632 9.65949 24.3843 7.1488 28.9617 7.1488C33.9358 7.1488 37.1598 9.36673 37.1598 14.3463V27.8198H32.9814V26.1038H32.3841C30.8312 27.318 28.7228 28.3217 26.335 28.3217C22.0765 28.3217 19.4903 25.6019 19.4903 22.0038Z" fill="white"/>
<path d="M40.0635 21.5436H44.4008C44.7986 23.3014 46.1126 24.4725 48.7394 24.4725C51.5644 24.4725 52.6383 23.3433 52.6383 21.7945C52.6383 20.0798 51.4844 19.7033 49.7726 19.5348L46.9476 19.2433C42.6102 18.782 40.7002 16.7313 40.7002 13.5527C40.7002 9.74424 43.8442 7.1499 48.4993 7.1499C53.1149 7.1499 56.0212 9.57694 56.1801 13.5096H52.1605C52.0411 11.9622 50.6482 10.8735 48.4598 10.8735C46.3503 10.8735 44.8786 11.7936 44.8786 13.3842C44.8786 14.7225 46.0326 15.3511 48.2209 15.5603L51.0066 15.853C54.5878 16.2294 56.8168 18.0291 56.8168 21.5854C56.8168 25.6017 53.6334 28.3216 48.7394 28.3216C43.5252 28.3216 40.3418 25.3508 40.0635 21.5436Z" fill="white"/>
<path d="M59.5618 7.65179H63.7403V9.99518H64.3376C65.7292 8.0282 67.9582 7.1499 70.1072 7.1499C74.7228 7.1499 78.8619 10.6644 78.8619 17.6527C78.8619 24.5574 74.4051 27.8197 69.3904 27.8197H66.3265V23.6779H69.1527C72.1761 23.6779 74.644 21.9618 74.644 17.6527C74.644 13.3842 72.4544 11.2512 69.2316 11.2512C66.1282 11.2512 63.7403 13.2587 63.7403 17.5691V34.8917H59.5618V7.65179Z" fill="white"/>
<path d="M81.1711 17.7364C81.1711 10.6238 85.8274 7.1499 90.682 7.1499C95.8949 7.1499 99.5562 10.9153 99.5562 16.7326V18.9074H87.9357V15.7276H95.4565C95.2988 12.8823 93.6277 11.042 90.7214 11.042C87.4579 11.042 85.3496 13.4273 85.3496 17.7364C85.3496 22.2559 87.618 24.3483 90.682 24.3483C92.9098 24.3483 94.5415 23.176 95.1388 21.5436H99.2778C98.4811 25.4357 95.1388 28.3228 90.682 28.3228C85.8274 28.3228 81.1711 24.8489 81.1711 17.7364Z" fill="white"/>
<path d="M102.46 7.65179H106.638V9.99518H107.315C108.071 8.48826 109.622 7.1499 112.449 7.1499H113.961V11.5857H111.334C108.11 11.5857 106.638 13.6769 106.638 17.275V27.8197H102.46V7.65179Z" fill="white"/>
<path d="M115.234 21.5436H119.572C119.97 23.3014 121.284 24.4725 123.909 24.4725C126.735 24.4725 127.809 23.3433 127.809 21.7945C127.809 20.0798 126.655 19.7033 124.944 19.5348L122.119 19.2433C117.781 18.782 115.871 16.7313 115.871 13.5527C115.871 9.74424 119.015 7.1499 123.67 7.1499C128.287 7.1499 131.192 9.57694 131.351 13.5096H127.331C127.212 11.9622 125.819 10.8735 123.631 10.8735C121.521 10.8735 120.05 11.7936 120.05 13.3842C120.05 14.7225 121.204 15.3511 123.393 15.5603L126.178 15.853C129.759 16.2294 131.988 18.0291 131.988 21.5854C131.988 25.6017 128.804 28.3216 123.909 28.3216C118.695 28.3216 115.512 25.3508 115.234 21.5436Z" fill="white"/>
<path d="M147.07 7.65194L140.981 16.0623V18.6985L147.229 27.8198H152.401L145.08 17.3588L152.162 7.65194H147.07ZM134.615 27.8198H138.792V0.203522H134.615V27.8198Z" fill="white"/>
<path d="M161.554 25.7692L153.514 7.65063H158.131L161.554 15.6846C162.389 17.6097 163.185 19.4513 163.423 20.7072H164.1C164.339 19.4513 165.095 17.5679 165.93 15.6428L169.353 7.65063H173.97L162.031 34.8918H157.575L161.554 25.7692Z" fill="white"/>
</svg>
